<?xml version="1.0" standalone="no"?>
<!DOCTYPE svg PUBLIC "-//W3C//DTD SVG 20010904//EN"
 "http://www.w3.org/TR/2001/REC-SVG-20010904/DTD/svg10.dtd">
<svg version="1.0" xmlns="http://www.w3.org/2000/svg"
 width="700.000000pt" height="700.000000pt" viewBox="0 0 700.000000 700.000000"
 preserveAspectRatio="xMidYMid meet">
<metadata>
Created by potrace 1.14, written by Peter Selinger 2001-2017
</metadata>
<g transform="translate(0.000000,700.000000) scale(0.100000,-0.100000)"
fill="#000000" stroke="none">
<path d="M1025 6984 c-679 -120 -1105 -787 -929 -1454 31 -121 116 -295 193
-397 154 -205 382 -359 636 -430 l100 -28 683 -3 682 -3 0 623 c0 684 -3 735
-59 905 -137 418 -511 732 -945 792 -104 15 -263 12 -361 -5z"/>
<path d="M5603 6980 c-515 -112 -881 -520 -933 -1040 -7 -65 -10 -329 -8 -690
l3 -585 585 -3 c629 -3 734 2 890 43 384 103 703 415 814 797 76 262 58 550
-49 798 -139 323 -435 574 -785 667 -135 36 -383 42 -517 13z"/>
<path d="M3306 4654 c-249 -45 -455 -152 -631 -329 -460 -459 -460 -1191 0
-1650 459 -460 1191 -460 1650 0 460 459 460 1191 0 1650 -225 226 -518 347
-834 344 -58 0 -142 -7 -185 -15z"/>
<path d="M4667 2334 c-11 -11 -8 -1187 3 -1289 51 -444 348 -826 757 -974 154
-56 267 -74 443 -68 108 4 180 11 236 26 432 108 757 433 865 865 32 125 37
361 11 491 -95 474 -444 825 -926 932 -59 13 -179 17 -726 20 -361 2 -659 1
-663 -3z"/>
<path d="M960 2314 c-417 -76 -764 -378 -900 -782 -139 -415 -28 -879 284
-1187 472 -468 1211 -458 1667 22 42 44 95 108 119 142 62 93 135 252 167 366
l28 100 3 678 3 677 -648 -1 c-500 -1 -665 -4 -723 -15z"/>
</g>
</svg>
