<svg viewBox="0 0 56 56" fill="none" xmlns="http://www.w3.org/2000/svg">
    <path d="M9.77779 18.6667C4.62314 18.6667 0.444458 14.488 0.444458 9.33332V9.33332C0.444457 4.17867 4.62313 -1.16267e-05 9.77779 -1.18521e-05V-1.18521e-05C14.9324 -1.20774e-05 19.1111 4.17866 19.1111 9.33332L19.1111 18.6667L9.77779 18.6667Z" fill="#EF1D1D" fill-opacity="0.35"/>
    <path d="M9.33333 56C4.17868 56 -1.82656e-07 51.8213 -4.07973e-07 46.6667V46.6667C-6.3329e-07 41.512 4.17868 37.3333 9.33333 37.3333L18.6667 37.3333L18.6667 46.6667C18.6667 51.8213 14.488 56 9.33333 56V56Z" fill="#2B95D0" fill-opacity="0.35"/>
    <path d="M28 37.3333C22.8453 37.3333 18.6666 33.1547 18.6666 28V28C18.6666 22.8454 22.8453 18.6667 28 18.6667V18.6667C33.1546 18.6667 37.3333 22.8454 37.3333 28V28C37.3333 33.1547 33.1546 37.3333 28 37.3333V37.3333Z" fill="#1D1D1D"/>
    <path d="M37.3334 18.6667L37.3334 9.33332C37.3334 4.17867 41.512 -1.16267e-05 46.6667 -1.18521e-05V-1.18521e-05C51.8214 -1.20774e-05 56 4.17866 56 9.33332V9.33332C56 14.488 51.8214 18.6667 46.6667 18.6667L37.3334 18.6667Z" fill="#6B6B6B"/>
    <path d="M46.6667 56C41.512 56 37.3334 51.8213 37.3334 46.6667L37.3334 37.3333L46.6667 37.3333C51.8214 37.3333 56 41.512 56 46.6667V46.6667C56 51.8213 51.8214 56 46.6667 56V56Z" fill="#4D5B4A"/>
</svg>