<svg width="71" height="28" viewBox="0 0 71 28" fill="none" xmlns="http://www.w3.org/2000/svg">
    <path d="M1.00323 13.0567C1.03459 13.3311 1.28242 13.5281 1.55677 13.4967L6.02767 12.9857C6.30203 12.9544 6.49902 12.7066 6.46766 12.4322C6.43631 12.1579 6.18848 11.9609 5.91413 11.9922L1.93999 12.4464L1.48581 8.47226C1.45446 8.1979 1.20663 8.00091 0.932276 8.03227C0.657919 8.06362 0.460927 8.31145 0.492282 8.58581L1.00323 13.0567ZM1.89141 13.3111C2.10177 13.0464 2.31357 12.7871 2.52675 12.5329L1.7606 11.8902C1.54173 12.1512 1.32437 12.4173 1.10859 12.6888L1.89141 13.3111ZM3.84142 11.0491C4.30118 10.5582 4.76643 10.0898 5.23655 9.6432L4.5478 8.9182C4.0634 9.37838 3.58445 9.8606 3.11158 10.3655L3.84142 11.0491ZM6.71273 8.32452C7.22686 7.89336 7.74587 7.48645 8.269 7.10301L7.67782 6.29647C7.13697 6.6929 6.60083 7.11326 6.07016 7.5583L6.71273 8.32452ZM9.90263 5.98888C10.4679 5.63127 11.037 5.2993 11.6091 4.99203L11.1359 4.11107C10.5429 4.42959 9.95327 4.77353 9.368 5.14379L9.90263 5.98888ZM13.382 4.12152C13.9905 3.85003 14.6014 3.60491 15.2134 3.38507L14.8754 2.44393C14.2399 2.67217 13.606 2.92659 12.9745 3.20828L13.382 4.12152ZM17.0942 2.78872C17.7343 2.61212 18.3747 2.46184 19.0141 2.33667L18.822 1.3553C18.158 1.48528 17.493 1.64134 16.8282 1.82473L17.0942 2.78872ZM20.9623 2.03123C21.6215 1.95322 22.2783 1.90086 22.9314 1.87282L22.8885 0.873744C22.2108 0.902834 21.5291 0.957174 20.8448 1.03816L20.9623 2.03123ZM24.9069 1.86124C25.5697 1.88179 26.227 1.92665 26.8776 1.9944L26.9811 0.999776C26.3068 0.929554 25.6252 0.883029 24.9379 0.861722L24.9069 1.86124ZM28.8329 2.26939C29.4866 2.38533 30.1314 2.52395 30.7657 2.68367L31.0099 1.71395C30.3528 1.5485 29.6848 1.40488 29.0075 1.28476L28.8329 2.26939ZM32.6649 3.23426C33.2963 3.44188 33.9147 3.67028 34.5181 3.91769L34.8975 2.99243C34.272 2.73602 33.6313 2.49938 32.9772 2.2843L32.6649 3.23426ZM36.317 4.73255C36.9143 5.02989 37.4932 5.34598 38.0516 5.67878L38.5636 4.81975C37.9833 4.47395 37.3823 4.1458 36.7627 3.83735L36.317 4.73255ZM39.7024 6.75274C40.2481 7.13988 40.7683 7.54331 41.2605 7.96055L41.9071 7.19776C41.3924 6.76143 40.8495 6.34043 40.281 5.93713L39.7024 6.75274ZM42.6958 9.2973C43.1632 9.77694 43.5946 10.2694 43.9872 10.7716L44.775 10.1556C44.3589 9.62346 43.9035 9.10374 43.4121 8.59943L42.6958 9.2973ZM45.0884 12.3747C45.2557 12.6561 45.4106 12.9392 45.5528 13.2235L46.4472 12.7763C46.2938 12.4696 46.1272 12.1652 45.948 11.8637L45.0884 12.3747Z" fill="black"/>
    <path d="M21.538 25L24.34 16.6H24.496L26.122 23.392L29.644 16.6H29.8L30.25 25H29.878L29.488 17.632L26.098 24.172H25.918L24.364 17.632L21.898 25H21.538ZM33.9452 25.156C33.3932 25.156 32.9092 25.014 32.4932 24.73C32.0812 24.446 31.7752 24.066 31.5752 23.59C31.3712 23.11 31.3092 22.58 31.3892 22C31.4492 21.56 31.5832 21.15 31.7912 20.77C32.0032 20.386 32.2672 20.05 32.5832 19.762C32.8992 19.47 33.2492 19.242 33.6332 19.078C34.0212 18.914 34.4212 18.832 34.8332 18.832C35.3852 18.832 35.8672 18.974 36.2792 19.258C36.6952 19.542 37.0052 19.924 37.2092 20.404C37.4132 20.884 37.4732 21.416 37.3892 22C37.3292 22.436 37.1932 22.844 36.9812 23.224C36.7732 23.604 36.5112 23.94 36.1952 24.232C35.8792 24.52 35.5292 24.746 35.1452 24.91C34.7612 25.074 34.3612 25.156 33.9452 25.156ZM33.9932 24.796C34.4892 24.796 34.9532 24.668 35.3852 24.412C35.8212 24.152 36.1852 23.81 36.4772 23.386C36.7732 22.962 36.9572 22.5 37.0292 22C37.1012 21.496 37.0492 21.032 36.8732 20.608C36.6972 20.18 36.4272 19.838 36.0632 19.582C35.7032 19.322 35.2752 19.192 34.7792 19.192C34.2792 19.192 33.8112 19.322 33.3752 19.582C32.9432 19.838 32.5812 20.18 32.2892 20.608C32.0012 21.032 31.8212 21.496 31.7492 22C31.6772 22.52 31.7312 22.992 31.9112 23.416C32.0912 23.836 32.3632 24.172 32.7272 24.424C33.0912 24.672 33.5132 24.796 33.9932 24.796ZM41.974 19.3C41.882 19.264 41.786 19.238 41.686 19.222C41.586 19.202 41.482 19.192 41.374 19.192C40.978 19.192 40.6 19.306 40.24 19.534C39.884 19.758 39.582 20.06 39.334 20.44C39.086 20.82 38.93 21.24 38.866 21.7L38.398 25H38.038L38.884 19H39.244L39.07 20.224C39.378 19.784 39.736 19.442 40.144 19.198C40.556 18.954 40.984 18.832 41.428 18.832C41.548 18.832 41.662 18.842 41.77 18.862C41.882 18.878 41.986 18.904 42.082 18.94L41.974 19.3ZM44.2694 25.156C43.7174 25.156 43.2334 25.014 42.8174 24.73C42.4054 24.446 42.0994 24.066 41.8994 23.59C41.6954 23.11 41.6334 22.58 41.7134 22C41.7734 21.56 41.9074 21.15 42.1154 20.77C42.3274 20.386 42.5914 20.05 42.9074 19.762C43.2234 19.47 43.5734 19.242 43.9574 19.078C44.3454 18.914 44.7454 18.832 45.1574 18.832C45.5854 18.832 45.9674 18.912 46.3034 19.072C46.6434 19.232 46.9254 19.46 47.1494 19.756C47.3734 20.052 47.5314 20.406 47.6234 20.818C47.7154 21.226 47.7314 21.68 47.6714 22.18H42.0434C42.0154 22.68 42.0954 23.128 42.2834 23.524C42.4714 23.916 42.7414 24.226 43.0934 24.454C43.4494 24.682 43.8574 24.796 44.3174 24.796C44.8294 24.796 45.3094 24.66 45.7574 24.388C46.2054 24.116 46.5814 23.74 46.8854 23.26L47.2334 23.344C46.9174 23.876 46.4934 24.312 45.9614 24.652C45.4334 24.988 44.8694 25.156 44.2694 25.156ZM42.0974 21.82H47.3654C47.4174 21.352 47.3494 20.918 47.1614 20.518C46.9774 20.118 46.7054 19.798 46.3454 19.558C45.9894 19.314 45.5754 19.192 45.1034 19.192C44.6274 19.192 44.1794 19.31 43.7594 19.546C43.3394 19.782 42.9814 20.1 42.6854 20.5C42.3934 20.896 42.1974 21.336 42.0974 21.82ZM52.0793 19H52.4393L51.5933 25H51.2333L52.0793 19ZM52.4573 17.62C52.3813 17.62 52.3193 17.596 52.2713 17.548C52.2273 17.496 52.2093 17.432 52.2173 17.356C52.2293 17.276 52.2653 17.212 52.3253 17.164C52.3853 17.116 52.4533 17.092 52.5293 17.092C52.6013 17.092 52.6593 17.116 52.7033 17.164C52.7513 17.212 52.7693 17.274 52.7573 17.35C52.7493 17.43 52.7153 17.496 52.6553 17.548C52.5953 17.596 52.5293 17.62 52.4573 17.62ZM58.414 21.676L57.946 25H57.586L58.054 21.7C58.118 21.24 58.078 20.82 57.934 20.44C57.794 20.06 57.576 19.758 57.28 19.534C56.984 19.306 56.638 19.192 56.242 19.192C55.85 19.192 55.476 19.306 55.12 19.534C54.764 19.758 54.462 20.06 54.214 20.44C53.966 20.82 53.81 21.24 53.746 21.7L53.278 25H52.918L53.764 19H54.124L53.95 20.224C54.258 19.784 54.614 19.442 55.018 19.198C55.426 18.954 55.852 18.832 56.296 18.832C56.776 18.832 57.186 18.964 57.526 19.228C57.866 19.492 58.114 19.84 58.27 20.272C58.43 20.704 58.478 21.172 58.414 21.676ZM61.2467 17.2L60.9947 19H62.9267L62.8727 19.36H60.9407L60.1487 25H59.7887L60.5807 19.36H59.6327L59.6867 19H60.6347L60.8867 17.2C60.9227 16.952 61.0147 16.726 61.1627 16.522C61.3107 16.318 61.4947 16.156 61.7147 16.036C61.9347 15.916 62.1687 15.856 62.4167 15.856C62.5967 15.856 62.7627 15.89 62.9147 15.958C63.0707 16.026 63.2027 16.124 63.3107 16.252L63.0227 16.504C62.9467 16.412 62.8507 16.342 62.7347 16.294C62.6227 16.242 62.5007 16.216 62.3687 16.216C62.1007 16.216 61.8567 16.312 61.6367 16.504C61.4167 16.696 61.2867 16.928 61.2467 17.2ZM65.4803 25.156C64.9283 25.156 64.4443 25.014 64.0283 24.73C63.6163 24.446 63.3103 24.066 63.1103 23.59C62.9063 23.11 62.8443 22.58 62.9243 22C62.9843 21.56 63.1183 21.15 63.3263 20.77C63.5383 20.386 63.8023 20.05 64.1183 19.762C64.4343 19.47 64.7843 19.242 65.1683 19.078C65.5563 18.914 65.9563 18.832 66.3683 18.832C66.9203 18.832 67.4023 18.974 67.8143 19.258C68.2303 19.542 68.5403 19.924 68.7443 20.404C68.9483 20.884 69.0083 21.416 68.9243 22C68.8643 22.436 68.7283 22.844 68.5163 23.224C68.3083 23.604 68.0463 23.94 67.7303 24.232C67.4143 24.52 67.0643 24.746 66.6803 24.91C66.2963 25.074 65.8963 25.156 65.4803 25.156ZM65.5283 24.796C66.0243 24.796 66.4883 24.668 66.9203 24.412C67.3563 24.152 67.7203 23.81 68.0123 23.386C68.3083 22.962 68.4923 22.5 68.5643 22C68.6363 21.496 68.5843 21.032 68.4083 20.608C68.2323 20.18 67.9623 19.838 67.5983 19.582C67.2383 19.322 66.8103 19.192 66.3143 19.192C65.8143 19.192 65.3463 19.322 64.9103 19.582C64.4783 19.838 64.1163 20.18 63.8243 20.608C63.5363 21.032 63.3563 21.496 63.2843 22C63.2123 22.52 63.2663 22.992 63.4463 23.416C63.6263 23.836 63.8983 24.172 64.2623 24.424C64.6263 24.672 65.0483 24.796 65.5283 24.796Z" fill="black"/>
</svg>
